<mxfile host="app.diagrams.net" modified="2020-10-17T15:39:37.683Z" agent="5.0 (Windows NT 10.0; Win64; x64) AppleWebKit/537.36 (KHTML, like Gecko) Chrome/86.0.4240.75 Safari/537.36" etag="Hwz-UPznimi8pFGMDSlV" version="13.8.0" type="github">
  <diagram id="psu4mCp4bwzzi6zEXSst" name="Page-1">
    <mxGraphModel dx="868" dy="393" grid="1" gridSize="10" guides="1" tooltips="1" connect="1" arrows="1" fold="1" page="1" pageScale="1" pageWidth="850" pageHeight="1100" math="0" shadow="0">
      <root>
        <mxCell id="0" />
        <mxCell id="1" parent="0" />
        <mxCell id="_QHSKDTz4MMHxp_XN4x7-1" value="Index.js&lt;br&gt;&lt;br&gt;Starts Mongoose server&lt;br&gt;Requires both modules" style="rounded=1;whiteSpace=wrap;html=1;" vertex="1" parent="1">
          <mxGeometry x="330" width="120" height="100" as="geometry" />
        </mxCell>
        <mxCell id="_QHSKDTz4MMHxp_XN4x7-2" value="Input.js&lt;br&gt;&lt;br&gt;Gets command from CLI&lt;br&gt;Based on that returns Object" style="rounded=1;whiteSpace=wrap;html=1;" vertex="1" parent="1">
          <mxGeometry x="130" y="170" width="120" height="130" as="geometry" />
        </mxCell>
        <mxCell id="_QHSKDTz4MMHxp_XN4x7-3" value="Notes.js&lt;br&gt;&lt;br&gt;Based on Obj from input, executes an action using collection.js" style="rounded=1;whiteSpace=wrap;html=1;" vertex="1" parent="1">
          <mxGeometry x="520" y="170" width="120" height="130" as="geometry" />
        </mxCell>
        <mxCell id="_QHSKDTz4MMHxp_XN4x7-4" value="" style="endArrow=classic;startArrow=classic;html=1;entryX=0.5;entryY=1;entryDx=0;entryDy=0;exitX=1;exitY=0;exitDx=0;exitDy=0;" edge="1" parent="1" source="_QHSKDTz4MMHxp_XN4x7-2" target="_QHSKDTz4MMHxp_XN4x7-1">
          <mxGeometry width="50" height="50" relative="1" as="geometry">
            <mxPoint x="400" y="190" as="sourcePoint" />
            <mxPoint x="450" y="140" as="targetPoint" />
          </mxGeometry>
        </mxCell>
        <mxCell id="_QHSKDTz4MMHxp_XN4x7-5" value="new Obj" style="text;html=1;align=center;verticalAlign=middle;resizable=0;points=[];autosize=1;" vertex="1" parent="1">
          <mxGeometry x="270" y="110" width="60" height="20" as="geometry" />
        </mxCell>
        <mxCell id="_QHSKDTz4MMHxp_XN4x7-6" value="" style="endArrow=classic;startArrow=classic;html=1;entryX=0.5;entryY=1;entryDx=0;entryDy=0;exitX=0;exitY=0;exitDx=0;exitDy=0;" edge="1" parent="1" source="_QHSKDTz4MMHxp_XN4x7-3" target="_QHSKDTz4MMHxp_XN4x7-1">
          <mxGeometry width="50" height="50" relative="1" as="geometry">
            <mxPoint x="400" y="150" as="sourcePoint" />
            <mxPoint x="450" y="100" as="targetPoint" />
          </mxGeometry>
        </mxCell>
        <mxCell id="_QHSKDTz4MMHxp_XN4x7-8" value="new Note using obj from input&lt;br&gt;" style="text;html=1;align=center;verticalAlign=middle;resizable=0;points=[];autosize=1;" vertex="1" parent="1">
          <mxGeometry x="480" y="120" width="170" height="20" as="geometry" />
        </mxCell>
        <mxCell id="_QHSKDTz4MMHxp_XN4x7-11" value="Notes Shema&lt;br&gt;&lt;br&gt;Creates schema for database" style="whiteSpace=wrap;html=1;aspect=fixed;" vertex="1" parent="1">
          <mxGeometry x="330" y="320" width="150" height="150" as="geometry" />
        </mxCell>
        <mxCell id="_QHSKDTz4MMHxp_XN4x7-12" value="Notes Collection&lt;br&gt;&lt;br&gt;Acts as a middleware between Note.js and the created Schema&lt;br&gt;&lt;br&gt;Has CRUDE methods" style="whiteSpace=wrap;html=1;aspect=fixed;" vertex="1" parent="1">
          <mxGeometry x="740" y="320" width="150" height="150" as="geometry" />
        </mxCell>
        <mxCell id="_QHSKDTz4MMHxp_XN4x7-13" value="" style="endArrow=classic;html=1;exitX=1;exitY=0.5;exitDx=0;exitDy=0;entryX=0;entryY=0.5;entryDx=0;entryDy=0;" edge="1" parent="1" source="_QHSKDTz4MMHxp_XN4x7-11" target="_QHSKDTz4MMHxp_XN4x7-12">
          <mxGeometry width="50" height="50" relative="1" as="geometry">
            <mxPoint x="470" y="350" as="sourcePoint" />
            <mxPoint x="520" y="300" as="targetPoint" />
          </mxGeometry>
        </mxCell>
        <mxCell id="_QHSKDTz4MMHxp_XN4x7-14" value="Create Schema" style="text;html=1;align=center;verticalAlign=middle;resizable=0;points=[];autosize=1;" vertex="1" parent="1">
          <mxGeometry x="490" y="370" width="100" height="20" as="geometry" />
        </mxCell>
        <mxCell id="_QHSKDTz4MMHxp_XN4x7-15" value="" style="endArrow=classic;startArrow=classic;html=1;entryX=0;entryY=0;entryDx=0;entryDy=0;" edge="1" parent="1" source="_QHSKDTz4MMHxp_XN4x7-3" target="_QHSKDTz4MMHxp_XN4x7-12">
          <mxGeometry width="50" height="50" relative="1" as="geometry">
            <mxPoint x="590" y="310" as="sourcePoint" />
            <mxPoint x="640" y="260" as="targetPoint" />
          </mxGeometry>
        </mxCell>
        <mxCell id="_QHSKDTz4MMHxp_XN4x7-16" value="Based on action/message/etc&lt;br&gt;&lt;br&gt;Calls right method" style="text;html=1;align=center;verticalAlign=middle;resizable=0;points=[];autosize=1;" vertex="1" parent="1">
          <mxGeometry x="670" y="250" width="170" height="50" as="geometry" />
        </mxCell>
      </root>
    </mxGraphModel>
  </diagram>
</mxfile>
